<?xml version="1.0" encoding="utf-8"?>
<!-- Svg Vector Icons : http://www.onlinewebfonts.com/icon -->
<!DOCTYPE svg PUBLIC "-//W3C//DTD SVG 1.1//EN" "http://www.w3.org/Graphics/SVG/1.1/DTD/svg11.dtd">
<svg version="1.1" xmlns="http://www.w3.org/2000/svg" xmlns:xlink="http://www.w3.org/1999/xlink" x="0px" y="0px" viewBox="0 0 256 256" enable-background="new 0 0 256 256" xml:space="preserve">
<metadata> Svg Vector Icons : http://www.onlinewebfonts.com/icon </metadata>
<g> <path fill="#000000" d="M128,246c-3.1,0-6.1-0.8-8.8-2.4l-27.9-17.1c-4.2-2.4-2.1-3.3-0.8-3.8c5.6-2,7.2-3,13.1-6.5 c0.6-0.4,1.4-0.2,2.1,0.2l20.9,12.4c0.8,0.4,1.9,0.4,2.6,0l81.7-48.6c0.8-0.5,1.3-1.4,1.3-2.3V79.5c0-1-0.5-1.9-1.3-2.4l-81.7-49.9 c-0.8-0.5-1.8-0.5-2.6,0L45,77.1c-0.8,0.5-1.3,1.4-1.3,2.4v98.4c0,1,0.5,1.9,1.3,2.3l21,12.6c12.4,6.4,19.8-0.1,19.8-7.7V88.3 c0-1.4,1.1-2.5,2.4-2.5h12c1.3,0,2.4,1.1,2.4,2.5v96.8c0,17.2-10.2,27-25.9,27c-4.8,0-8.6,0-19.3-5.4l-21.9-13.1 c-5.4-3.2-8.8-9.3-8.8-15.8V78.1c0-6.5,3.4-12.5,8.8-15.8l83.6-50c5.3-3.1,12.3-3.1,17.6,0l83.6,50c5.4,3.2,8.8,9.3,8.8,15.8v99.8 c0,6.5-3.4,12.5-8.8,15.8l-83.6,49.9C134.1,245.2,131.1,246,128,246L128,246z"/> <path fill="#000000" d="M153.8,178.6c-34,0-44.3-16.7-44.3-31.2c0-1.4,1.1-2.5,2.4-2.5h10.8c1.2,0,2.2,0.9,2.4,2.1 c1.6,11.4,8.8,16.4,28.6,16.4c17.6,0,24.8-5.4,24.8-15.1c0-5.6-1.8-9.7-29.2-12.5c-22.9-2.3-37-7.6-37-26.5 c0-17.5,14.2-27.7,38.1-27.7c24.3,0,40.3,7.4,41.7,26.8c0.1,0.7-0.2,1.4-0.7,1.9c-0.5,0.5-1.1,0.8-1.8,0.8h-10.8 c-1.1,0-2.1-0.8-2.3-2c-2.3-8.9-8.9-12.3-26.1-12.3c-19.2,0-21.5,6.7-21.5,11.9c0,6.3,2.7,8.1,28.6,11.7 c25.7,3.5,37.9,8.5,37.9,27.2C195.4,166.5,180.2,178.6,153.8,178.6L153.8,178.6L153.8,178.6z"/></g>
</svg>